<svg xmlns="http://www.w3.org/2000/svg" viewBox="0 0 1200 900" role="img" aria-labelledby="title desc">
  <title id="title">EllDesigns school uniforms</title>
  <desc id="desc">Stylised badge graphic for school uniform collections.</desc>
  <defs>
    <linearGradient id="crest" x1="0%" y1="0%" x2="100%" y2="100%">
      <stop offset="0%" stop-color="#1f2937" />
      <stop offset="100%" stop-color="#111827" />
    </linearGradient>
    <linearGradient id="accent" x1="0%" y1="0%" x2="0%" y2="100%">
      <stop offset="0%" stop-color="#DC143C" />
      <stop offset="100%" stop-color="#F75270" />
    </linearGradient>
  </defs>
  <rect width="1200" height="900" fill="#FDEBD0" />
  <g opacity="0.15" fill="#DC143C">
    <rect x="0" y="200" width="1200" height="12" />
    <rect x="0" y="380" width="1200" height="12" />
    <rect x="0" y="560" width="1200" height="12" />
  </g>
  <g transform="translate(350 220)">
    <path d="M250 0L500 110V420C500 480 450 560 250 620C50 560 0 480 0 420V110L250 0Z" fill="url(#crest)" />
    <path d="M250 40L60 130V410C60 440 90 500 250 550C410 500 440 440 440 410V130L250 40Z" fill="none" stroke="url(#accent)" stroke-width="18" />
    <path d="M150 200H350" stroke="#FDEBD0" stroke-width="22" stroke-linecap="round" />
    <path d="M150 280H350" stroke="#FDEBD0" stroke-width="22" stroke-linecap="round" />
    <rect x="220" y="360" width="60" height="120" rx="20" fill="#FDEBD0" />
  </g>
  <text x="120" y="780" fill="#040406" font-family="'Poppins','Segoe UI',sans-serif" font-size="96" font-weight="600">Uniforms</text>
</svg>
